<svg width="7" height="6" viewBox="0 0 7 6" fill="none" xmlns="http://www.w3.org/2000/svg">
<path d="M6.49973 0.504461L0.499728 0.504461C0.438981 0.504651 0.379435 0.521406 0.327502 0.55292C0.275569 0.584434 0.233214 0.629516 0.204996 0.683311C0.176778 0.737107 0.163765 0.797581 0.16736 0.858221C0.170954 0.918863 0.191019 0.977375 0.225394 1.02746L3.22539 5.36079C3.34973 5.54046 3.64906 5.54046 3.77373 5.36079L6.77373 1.02746C6.80845 0.97748 6.82882 0.918938 6.83261 0.858196C6.8364 0.797454 6.82347 0.736835 6.79522 0.682925C6.76698 0.629015 6.7245 0.583877 6.67241 0.552413C6.62031 0.52095 6.56059 0.504365 6.49973 0.504461Z" fill="black"/>
</svg>
