<svg width="12" height="12" viewBox="0 0 12 12" fill="none" xmlns="http://www.w3.org/2000/svg">
<g clip-path="url(#clip0_8967_1782)">
<path d="M11.999 5.99925V5.99625C11.999 4.22083 11.2261 2.6264 9.99867 1.52994L9.99267 1.52494C9.9775 1.50861 9.96056 1.49402 9.94217 1.48145L9.94117 1.48095C8.85099 0.523873 7.44916 -0.00267881 5.9985 1.02489e-05C4.48263 1.02489e-05 3.09874 0.562986 2.04383 1.49195L2.05033 1.48645C2.03765 1.49614 2.02593 1.50702 2.01533 1.51894C1.38117 2.08054 0.873567 2.77096 0.52613 3.54352C0.178694 4.31609 -0.000641639 5.15365 1.72492e-06 6.00075C1.72492e-06 7.77567 0.771937 9.3701 1.99833 10.4671L2.00433 10.4721C2.02029 10.49 2.03805 10.5062 2.05733 10.5206L2.05833 10.5211C3.14816 11.4768 4.54896 12.0026 5.9985 12C7.45481 12.0022 8.86162 11.4716 9.95367 10.5081L9.94717 10.5136C10.5923 9.95261 11.1095 9.25962 11.4637 8.48148C11.8178 7.70334 12.0007 6.8582 12 6.00325V5.99975L11.999 5.99925ZM9.76818 9.90158C9.47087 9.66133 9.15128 9.45005 8.81376 9.27061L8.78127 9.25461C9.08774 8.37115 9.27223 7.35269 9.28972 6.29324V6.28524H11.42C11.3484 7.65593 10.7584 8.94814 9.76968 9.90008L9.76818 9.90158ZM6.28548 9.14911C6.92692 9.18361 7.52637 9.32461 8.07933 9.5541L8.04333 9.5411C7.60037 10.5511 6.97692 11.245 6.28548 11.3975V9.14911ZM6.28548 8.57714V6.28524H8.71927C8.69991 7.23432 8.53535 8.17484 8.23131 9.07412L8.25081 9.00862C7.6302 8.75313 6.96996 8.6073 6.29947 8.57764L6.28598 8.57714H6.28548ZM6.28548 5.71326V3.42136C6.97402 3.39004 7.65188 3.2393 8.28881 2.97588L8.24931 2.99038C8.52679 3.79985 8.69727 4.7328 8.71927 5.70276V5.71326H6.28548ZM6.28548 2.84939V0.601984C6.97692 0.754478 7.60037 1.44545 8.04333 2.4584C7.52637 2.67339 6.92692 2.81389 6.29997 2.84889L6.28548 2.84939ZM7.71236 0.849473C8.30165 1.04561 8.85268 1.34194 9.34122 1.72544L9.32972 1.71644C9.10824 1.89043 8.85976 2.05442 8.59778 2.19691L8.56979 2.21091C8.35864 1.71101 8.06752 1.24882 7.70786 0.842474L7.71236 0.847973V0.849473ZM5.71252 0.603484V2.84939C5.09582 2.81796 4.48907 2.68098 3.91867 2.4444L3.95467 2.4574C4.39963 1.44745 5.02208 0.753978 5.71352 0.601484L5.71252 0.603484ZM3.42871 2.20941C3.15777 2.06348 2.89955 1.89507 2.65678 1.70594L2.66878 1.71494C3.14307 1.34268 3.67688 1.05328 4.24765 0.858973L4.28564 0.847473C3.93575 1.24307 3.65074 1.69161 3.44121 2.17642L3.42871 2.20941ZM5.71352 3.42086V5.71276H3.27973C3.30173 4.7323 3.47221 3.79935 3.76919 2.92438L3.74969 2.98988C4.37032 3.24413 5.03004 3.38974 5.70002 3.42036L5.71352 3.42086ZM5.71352 6.28474V8.57664C5.02498 8.60796 4.34712 8.7587 3.71019 9.02212L3.74969 9.00762C3.47221 8.19865 3.30173 7.2652 3.27973 6.29524V6.28474H5.71352ZM5.71352 9.14861V11.396C5.02208 11.2435 4.39863 10.5526 3.95567 9.5396C4.47263 9.3246 5.07208 9.18461 5.69903 9.14961L5.71352 9.14861ZM4.28864 11.1485C3.69988 10.9521 3.14901 10.6565 2.65978 10.2746L2.67178 10.2836C2.89326 10.1096 3.14174 9.94558 3.40372 9.80308L3.43171 9.78908C3.64129 10.2891 3.93238 10.7508 4.29314 11.1555L4.28864 11.1505V11.1485ZM8.57028 9.78859C8.86026 9.94608 9.10874 10.1096 9.34222 10.2921L9.33022 10.2831C8.85593 10.6553 8.32212 10.9447 7.75135 11.139L7.71336 11.1505C8.06321 10.7551 8.34822 10.3067 8.55779 9.82208L8.57028 9.78958V9.78859ZM11.42 5.71326H9.28972C9.27409 4.67881 9.09558 3.65328 8.76077 2.67439L8.78127 2.74339C9.13441 2.55738 9.46877 2.33771 9.77968 2.08742L9.76768 2.09642C10.7548 3.04451 11.345 4.33208 11.419 5.69876L11.42 5.71326ZM2.23081 2.09692C2.51879 2.33091 2.84226 2.5454 3.18523 2.72789L3.21773 2.74389C2.91126 3.62735 2.72677 4.64581 2.70927 5.70526V5.71326H0.578453C0.650095 4.34257 1.24006 3.05036 2.22882 2.09842L2.23081 2.09692ZM0.578953 6.28524H2.70927C2.72491 7.31969 2.90342 8.34522 3.23823 9.32411L3.21773 9.25511C2.84226 9.4546 2.51929 9.66909 2.21932 9.91108L2.23131 9.90208C1.24423 8.95399 0.653988 7.66642 0.579953 6.29974L0.579453 6.28574L0.578953 6.28524Z" fill="white"/>
</g>
<defs>
<clipPath id="clip0_8967_1782">
<rect width="12" height="12" fill="white"/>
</clipPath>
</defs>
</svg>
